<?xml version="1.0" standalone="no"?>
<!DOCTYPE svg PUBLIC "-//W3C//DTD SVG 20010904//EN"
 "http://www.w3.org/TR/2001/REC-SVG-20010904/DTD/svg10.dtd">
<svg version="1.0" xmlns="http://www.w3.org/2000/svg"
 width="700.000000pt" height="700.000000pt" viewBox="0 0 700.000000 700.000000"
 preserveAspectRatio="xMidYMid meet">
<metadata>
Created by potrace 1.14, written by Peter Selinger 2001-2017
</metadata>
<g transform="translate(0.000000,700.000000) scale(0.100000,-0.100000)"
fill="#000000" stroke="none">
<path d="M1480 6993 c-236 -33 -382 -77 -575 -173 -160 -81 -286 -172 -419
-305 -204 -203 -344 -438 -421 -709 -30 -107 -31 -109 -54 -261 -10 -65 -7
-356 4 -420 15 -92 35 -177 56 -246 13 -41 23 -76 24 -79 1 -3 7 -18 13 -33
40 -96 59 -137 81 -177 13 -25 30 -54 36 -65 129 -237 381 -479 646 -623 149
-81 387 -161 527 -177 27 -3 59 -8 73 -10 37 -8 297 -8 354 0 122 16 286 54
380 89 6 2 21 7 34 12 47 14 224 105 294 150 315 204 553 507 672 857 20 59
38 117 40 130 3 12 7 33 10 47 12 55 23 123 31 185 5 40 5 279 0 330 -27 270
-121 526 -277 761 -101 152 -294 344 -444 443 -155 102 -282 162 -443 210
-160 48 -269 63 -452 65 -91 2 -176 1 -190 -1z m296 -1056 c76 -19 170 -61
223 -101 88 -67 180 -194 215 -298 107 -323 -89 -675 -424 -763 -229 -60 -487
35 -624 230 -106 150 -138 307 -100 478 49 217 216 389 434 448 62 16 220 20
276 6z"/>
<path d="M3126 3870 l-2969 -2970 19 -21 c47 -53 717 -719 723 -719 3 0 1342
1337 2975 2970 2691 2692 2968 2971 2955 2987 -29 35 -721 723 -727 723 -4 0
-1343 -1337 -2976 -2970z"/>
<path d="M5287 3294 c-1 -1 -38 -4 -83 -8 -179 -13 -408 -78 -579 -163 -507
-253 -837 -725 -910 -1300 -8 -60 -8 -278 -1 -338 3 -22 7 -60 11 -85 25 -202
134 -481 257 -665 133 -198 384 -432 553 -517 17 -8 62 -31 100 -50 217 -109
429 -159 690 -163 292 -5 498 42 760 171 165 81 291 171 425 304 260 259 411
556 476 940 3 14 6 99 8 190 5 196 -12 335 -64 511 -12 41 -27 88 -35 104 -7
17 -21 50 -31 75 -24 61 -78 161 -132 245 -252 389 -677 663 -1132 730 -72 11
-306 25 -313 19z m193 -1065 c132 -25 285 -130 368 -250 96 -142 127 -352 73
-510 -115 -343 -484 -508 -816 -364 -65 28 -161 102 -209 161 -207 253 -179
612 64 825 149 132 319 177 520 138z"/>
</g>
</svg>
